<svg preserveAspectRatio="none" overflow="visible" style="display: block;" width="24" height="24" viewBox="0 0 24 24" fill="none" xmlns="http://www.w3.org/2000/svg">
<g id="Frame">
<path id="Vector" fill-rule="evenodd" clip-rule="evenodd" d="M4.5 3.75C4.30109 3.75 4.11032 3.82902 3.96967 3.96967C3.82902 4.11032 3.75 4.30109 3.75 4.5V19.5C3.75 19.6989 3.82902 19.8897 3.96967 20.0303C4.11032 20.171 4.30109 20.25 4.5 20.25H19.5C19.6989 20.25 19.8897 20.171 20.0303 20.0303C20.171 19.8897 20.25 19.6989 20.25 19.5V15H22.5V19.5C22.5 20.2956 22.1839 21.0587 21.6213 21.6213C21.0587 22.1839 20.2956 22.5 19.5 22.5H4.5C3.70435 22.5 2.94129 22.1839 2.37868 21.6213C1.81607 21.0587 1.5 20.2956 1.5 19.5V4.5C1.5 3.70435 1.81607 2.94129 2.37868 2.37868C2.94129 1.81607 3.70435 1.5 4.5 1.5H9V3.75H4.5ZM15 1.5H21.375C21.6734 1.5 21.9595 1.61853 22.1705 1.8295C22.3815 2.04048 22.5 2.32663 22.5 2.625V9H20.25V5.34L11.295 14.295L9.705 12.705L18.66 3.75H15V1.5Z" fill="#CECFD2"/>
</g>
</svg>
