<svg preserveAspectRatio="none" overflow="visible" style="display: block;" width="24" height="24" viewBox="0 0 24 24" fill="none" xmlns="http://www.w3.org/2000/svg">
<g id="Frame">
<path id="Vector" d="M4.053 7.851C4.84029 6.74282 5.85061 5.81151 7.01911 5.11687C8.1876 4.42223 9.48844 3.97961 10.8381 3.81742C12.1878 3.65524 13.5564 3.77707 14.8562 4.17511C16.156 4.57314 17.3582 5.23858 18.3856 6.12869C19.4131 7.01881 20.243 8.11393 20.8222 9.34376C21.4013 10.5736 21.7169 11.9109 21.7487 13.2699C21.7805 14.6289 21.5277 15.9796 21.0066 17.2351C20.4856 18.4906 19.7077 19.6233 18.723 20.5605L20.2755 22.1895C21.5111 21.0116 22.4812 19.5836 23.121 18.0009C23.7608 16.4182 24.0555 14.7173 23.9855 13.0116C23.9155 11.3059 23.4823 9.63482 22.715 8.10988C21.9477 6.58494 20.8638 5.24127 19.5358 4.1686C18.2078 3.09593 16.6662 2.31895 15.014 1.88955C13.3618 1.46015 11.637 1.38821 9.95472 1.67854C8.27248 1.96887 6.67155 2.61478 5.25883 3.57314C3.84612 4.5315 2.65414 5.78025 1.7625 7.236L4.053 7.851Z" fill="white"/>
<path id="Vector_2" fill-rule="evenodd" clip-rule="evenodd" d="M0.516 10.008C0.297491 10.7288 0.147329 11.4686 0.0675 12.2175L8.2515 14.4105C8.28945 15.306 8.64678 16.1583 9.25879 16.8132C9.8708 17.468 10.697 17.8821 11.5879 17.9805C12.4789 18.0789 13.3755 17.855 14.1157 17.3494C14.8558 16.8439 15.3904 16.09 15.6228 15.2243C15.8552 14.3587 15.77 13.4384 15.3826 12.6301C14.9952 11.8219 14.3312 11.179 13.5108 10.818C12.6904 10.4569 11.7679 10.4015 10.9102 10.6618C10.0525 10.9221 9.31635 11.4809 8.835 12.237L0.516 10.008ZM11.6115 15.699C11.4212 15.648 11.2428 15.56 11.0866 15.44C10.9303 15.3201 10.7992 15.1705 10.7007 14.9999C10.5018 14.6553 10.448 14.2458 10.551 13.8615C10.654 13.4772 10.9055 13.1496 11.2501 12.9507C11.5947 12.7518 12.0042 12.698 12.3885 12.801C12.7728 12.904 13.1004 13.1555 13.2993 13.5001C13.4982 13.8447 13.552 14.2542 13.449 14.6385C13.346 15.0228 13.0945 15.3504 12.7499 15.5493C12.4053 15.7482 11.9958 15.802 11.6115 15.699Z" fill="white"/>
<path id="Vector_3" d="M3.7245 22.1895C1.8073 20.3652 0.546914 17.9584 0.1395 15.3435L2.571 15.9945C3.03299 17.7373 3.96917 19.3178 5.2755 20.5605L3.7245 22.1895Z" fill="white"/>
</g>
</svg>
